/* XPM */
static const char * error_icon_xpm[] = {
"32 32 362 2",
"  	c None",
". 	c #E3E3E4",
"+ 	c #EAEAEA",
"@ 	c #DDDDDD",
"# 	c #D4D4D4",
"$ 	c #DADADA",
"% 	c #DBDBDA",
"& 	c #D5D5D5",
"* 	c #D8D8D7",
"= 	c #F2F2F2",
"- 	c #E2DFDF",
"; 	c #BD9B9C",
"> 	c #A76566",
", 	c #9B4141",
"' 	c #9D3434",
") 	c #9E2A2A",
"! 	c #A02F2F",
"~ 	c #A03A3A",
"{ 	c #A95655",
"] 	c #B37E7D",
"^ 	c #C1B1B1",
"/ 	c #D1D1D2",
"( 	c #E3E3E1",
"_ 	c #DAD3D4",
": 	c #AB7677",
"< 	c #973131",
"[ 	c #9C2A2A",
"} 	c #A02C2C",
"| 	c #A32D2D",
"1 	c #A42E2E",
"2 	c #A62F2F",
"3 	c #A72F2F",
"4 	c #A93030",
"5 	c #AB3131",
"6 	c #AC3232",
"7 	c #AB3232",
"8 	c #AD5555",
"9 	c #BDA3A3",
"0 	c #CECECF",
"a 	c #F3F3F3",
"b 	c #BEA1A2",
"c 	c #953535",
"d 	c #9A2929",
"e 	c #9E2B2B",
"f 	c #A02B2B",
"g 	c #A22D2D",
"h 	c #AB3030",
"i 	c #AD3232",
"j 	c #AE3332",
"k 	c #B03434",
"l 	c #B36969",
"m 	c #C7C2C4",
"n 	c #D3D3D3",
"o 	c #F1F1F1",
"p 	c #EFEFEF",
"q 	c #AD7D7E",
"r 	c #952828",
"s 	c #9D2A2A",
"t 	c #A42E2D",
"u 	c #A52F2F",
"v 	c #B23434",
"w 	c #B33434",
"x 	c #B24C4C",
"y 	c #C4B7B8",
"z 	c #D0D0D0",
"A 	c #F1F1F2",
"B 	c #EDEDEE",
"C 	c #AB7B7B",
"D 	c #952727",
"E 	c #9B2929",
"F 	c #B53535",
"G 	c #B34646",
"H 	c #C6BBBC",
"I 	c #D2D2D2",
"J 	c #B9999A",
"K 	c #9C2929",
"L 	c #B05353",
"M 	c #A02E2E",
"N 	c #B64F4F",
"O 	c #B64A4A",
"P 	c #B33535",
"Q 	c #B53636",
"R 	c #B73636",
"S 	c #B75655",
"T 	c #C8C6C8",
"U 	c #DFDFDE",
"V 	c #E2E2E2",
"W 	c #D3CBCB",
"X 	c #953232",
"Y 	c #CC9393",
"Z 	c #F6F6F6",
"` 	c #D3AEAE",
" .	c #A13030",
"..	c #B95A5A",
"+.	c #CEC7C7",
"@.	c #CAC1C1",
"#.	c #B85555",
"$.	c #B73737",
"%.	c #B83737",
"&.	c #BF8382",
"*.	c #C6C6C8",
"=.	c #F0F0F0",
"-.	c #E3E3E2",
";.	c #A56969",
">.	c #9B2A2A",
",.	c #CB9090",
"'.	c #ECECEC",
").	c #CEA9A9",
"!.	c #A33131",
"~.	c #A52E2E",
"{.	c #AA3030",
"].	c #B85959",
"^.	c #C7C7C8",
"/.	c #C5C5C5",
"(.	c #C8BFC0",
"_.	c #B95455",
":.	c #B63636",
"<.	c #B73C3C",
"[.	c #D8D8D8",
"}.	c #DCDCDC",
"|.	c #CDC6C6",
"1.	c #982D2D",
"2.	c #9F2B2B",
"3.	c #A02D2D",
"4.	c #F0E8E8",
"5.	c #ECECED",
"6.	c #E7E7E7",
"7.	c #CAA4A4",
"8.	c #A63232",
"9.	c #B75959",
"0.	c #C5C4C4",
"a.	c #C3C2C3",
"b.	c #B23132",
"c.	c #B63434",
"d.	c #B93737",
"e.	c #B93838",
"f.	c #C07E7E",
"g.	c #C4C4C5",
"h.	c #DCDCDB",
"i.	c #AE8383",
"j.	c #9D2B2B",
"k.	c #AE5454",
"l.	c #E7E0E0",
"m.	c #D7D7D8",
"n.	c #C59F9F",
"o.	c #A73232",
"p.	c #B55656",
"q.	c #CAC3C3",
"r.	c #C0C0C0",
"s.	c #BDBCBC",
"t.	c #BBBBBB",
"u.	c #BABABA",
"v.	c #ADA6A7",
"w.	c #993435",
"x.	c #A81313",
"y.	c #AB1414",
"z.	c #AD1616",
"A.	c #B01A1A",
"B.	c #B02E2E",
"C.	c #CACACB",
"D.	c #D7D7D7",
"E.	c #9F5353",
"F.	c #A12C2C",
"G.	c #A12D2C",
"H.	c #AF5454",
"I.	c #DED7D7",
"J.	c #D2D1D2",
"K.	c #CAC9CA",
"L.	c #BE9A9B",
"M.	c #C5BDBD",
"N.	c #BDBDBD",
"O.	c #983434",
"P.	c #A61212",
"Q.	c #AA1414",
"R.	c #AD1515",
"S.	c #AF1616",
"T.	c #B01616",
"U.	c #C3A9AA",
"V.	c #D5D5D4",
"W.	c #9B3535",
"X.	c #AF5453",
"Y.	c #D4CCCD",
"Z.	c #CECDCD",
"`.	c #C7C6C7",
" +	c #C2C2C3",
".+	c #BFBFC0",
"++	c #973434",
"@+	c #A51212",
"#+	c #A91313",
"$+	c #AC1515",
"%+	c #AE1516",
"&+	c #B11717",
"*+	c #C18585",
"=+	c #CBCBCB",
"-+	c #FAFAFA",
";+	c #C4C0C1",
">+	c #A52D2D",
",+	c #9E1C1C",
"'+	c #A33838",
")+	c #C6BEBE",
"!+	c #BFBFBF",
"~+	c #BCBCBC",
"{+	c #A51111",
"]+	c #A81212",
"^+	c #B21717",
"/+	c #BF6E6D",
"(+	c #F8F8F8",
"_+	c #BAADAE",
":+	c #A22E2D",
"<+	c #A32828",
"[+	c #9B1111",
"}+	c #990C0C",
"|+	c #9A0C0C",
"1+	c #B16060",
"2+	c #C0C0C1",
"3+	c #B8B7B7",
"4+	c #983838",
"5+	c #A41111",
"6+	c #B95E5D",
"7+	c #C6C6C7",
"8+	c #F7F7F7",
"9+	c #BBAFB0",
"0+	c #A82F2F",
"a+	c #A22323",
"b+	c #9A0D0D",
"c+	c #A93C3C",
"d+	c #C1C1C1",
"e+	c #BD8E8E",
"f+	c #A61515",
"g+	c #AE1616",
"h+	c #BC6261",
"i+	c #C8C8C8",
"j+	c #C3C1C2",
"k+	c #A42F2F",
"l+	c #A32121",
"m+	c #AA3C3C",
"n+	c #C7C7C7",
"o+	c #C49494",
"p+	c #A91717",
"q+	c #B31818",
"r+	c #C27575",
"s+	c #CBCBCC",
"t+	c #CDCDCD",
"u+	c #A43F3F",
"v+	c #AC3131",
"w+	c #A62525",
"x+	c #9C0D0D",
"y+	c #9D0D0D",
"z+	c #9D0E0E",
"A+	c #AC3D3D",
"B+	c #B1AAAB",
"C+	c #BEB7B7",
"D+	c #CCCCCC",
"E+	c #D6D6D7",
"F+	c #CB9A9A",
"G+	c #AB1818",
"H+	c #B21817",
"I+	c #B41818",
"J+	c #CA9594",
"K+	c #F9F9F9",
"L+	c #AC6261",
"M+	c #AA2C2C",
"N+	c #9F0F0F",
"O+	c #9E0E0E",
"P+	c #AD3D3D",
"Q+	c #AA3A3A",
"R+	c #CBC2C2",
"S+	c #D2A0A0",
"T+	c #AE1919",
"U+	c #D1C1C1",
"V+	c #FBFBFB",
"W+	c #D2D2D1",
"X+	c #B59192",
"Y+	c #AE3232",
"Z+	c #A31616",
"`+	c #A10F0F",
" @	c #A72121",
".@	c #A71212",
"+@	c #AF3C3D",
"@@	c #D4CBCC",
"#@	c #E3E3E3",
"$@	c #E9E9E9",
"%@	c #C88888",
"&@	c #B01717",
"*@	c #B31817",
"=@	c #B53A3A",
"-@	c #C6C4C5",
";@	c #A31010",
">@	c #A31212",
",@	c #B98686",
"'@	c #B33F3F",
")@	c #DFD6D6",
"!@	c #E0E0E0",
"~@	c #AC5C5D",
"{@	c #CA8D8D",
"]@	c #D1D1D1",
"^@	c #F6F6F7",
"/@	c #B27978",
"(@	c #A41313",
"_@	c #B88485",
":@	c #B9B9B9",
"<@	c #B64141",
"[@	c #E7DEDF",
"}@	c #E0DFE0",
"|@	c #AB6161",
"1@	c #AC1616",
"2@	c #B42D2D",
"3@	c #E0DBDB",
"4@	c #E2E2E1",
"5@	c #C7C6C6",
"6@	c #A73434",
"7@	c #A61414",
"8@	c #AE6666",
"9@	c #9B3334",
"0@	c #A71313",
"a@	c #B63C3C",
"b@	c #AE5050",
"c@	c #D2A4A4",
"d@	c #F5F5F5",
"e@	c #D9D9D8",
"f@	c #C1ADAD",
"g@	c #A71D1D",
"h@	c #C26A6A",
"i@	c #E0E0E1",
"j@	c #E5E5E6",
"k@	c #BE9C9C",
"l@	c #A81919",
"m@	c #BB5454",
"n@	c #E6E4E4",
"o@	c #DBDBDC",
"p@	c #C2A3A3",
"q@	c #AC2424",
"r@	c #BC5959",
"s@	c #E8E6E6",
"t@	c #C9BCBC",
"u@	c #B44F4F",
"v@	c #B32727",
"w@	c #BC6D6E",
"x@	c #DDDDDE",
"y@	c #DCDCDD",
"z@	c #DFDFDF",
"A@	c #CECECE",
"B@	c #C4A2A2",
"C@	c #B54D4D",
"D@	c #B01919",
"E@	c #B32C2C",
"F@	c #CB8383",
"G@	c #E6DEDF",
"H@	c #E6E6E6",
"I@	c #CEC4C4",
"J@	c #C69493",
"K@	c #BF6D6C",
"L@	c #BB5555",
"M@	c #B44444",
"N@	c #B84C4C",
"O@	c #C06262",
"P@	c #CB8686",
"Q@	c #D9BBBB",
"R@	c #E4E4E4",
"S@	c #DBDBDB",
"T@	c #D9D9D9",
"U@	c #D4D4D5",
"                                                                ",
"                    . + + + @ # # $ % & *                       ",
"                  = - ; > , ' ) ! ~ { ] ^ / & (                 ",
"                _ : < [ } | 1 2 3 4 5 6 7 8 9 0 %               ",
"            a b c d e f } g 1 2 2 4 h i j k k l m n o           ",
"          p q r d s ) f } g t u 2 4 h i j k v w x y z A         ",
"        B C D E E s ) f } g 1 u 2 4 h i j k v w F G H I         ",
"      + J r E E K s L M } g 1 2 2 4 h i N O v P Q R S T U       ",
"    V W X E E [ s Y Z `  .| 1 2 3 4 5 ..+.@.#.P Q $.%.&.*.=.    ",
"    -.;.>.s s s ,.Z o '.).!.~.2 3 {.].+.^./.(._.:.$.%.<.H [.    ",
"  }.|.1.2.2.2.3.4.o 5.6.V 7.8.2 4 9.+.^./.0.a.J b.c.d.e.f.g.Z   ",
"  h.i.j.} } f f k.l.6.V @ m.n.o.p.q.r.s.t.u.v.w.x.y.z.A.B.C.-.  ",
"  D.E.F.G.} } F.G.H.I.@ [.J.K.L.M.N.t.t.u.v.O.P.Q.y.R.S.T.U.V.  ",
"  I W.t | | | | | 1 X.Y.Z.`. +.+N.t.t.u.v.++@+#+Q.$+%+T.&+*+=+-+",
"  ;+} u ~.1 1 1 ~.>+,+'+)+ +!+~+t.t.u.v.++{+]+#+y.R.S.T.^+/+^.(+",
"  _+:+2 2 2 2 2 <+[+}+|+1+2+~+t.t.~+3+4+5+]+#+Q.$+%+S.&+^+6+7+8+",
"  9+1 0+3 3 3 a+b+|+|+c+)+N.t.t.~+!+d+e+f+#+Q.y.R.g+T.^+^+h+i+8+",
"  j+k+{.{.{.l+|+|+|+m+)+N.t.t.~+!+ +n+=+o+p+y.$+%+T.&+^+q+r+s+(+",
"  t+u+v+v+w+x+y+z+A+)+N.t.t.u.B+C+n+D+/ E+F+G+R.S.T.^+H+I+J+z K+",
"  C.L+i M+N+O+O+P+)+N.t.t.u.v.++Q+R+/ E+@ -.S+T+T.&+^+q+q+U+[.V+",
"  W+X+Y+Z+`+`+ @)+N.t.t.u.v.++5+.@+@@@@ #@$@5.%@&@^+*@I+=@[.6.  ",
"    -@u ;@;@;@>@,@t.t.u.v.++{+]+#+#+'@)@$@B !@~@&@*@I+I+{@]@^@  ",
"    z /@5+{+{+{+(@_@:@v.O.P.#+#+Q.y.$+<@[@}@|@1@^+I+I+2@3@}.V+  ",
"    4@5@6@.@.@.@.@7@8@9@0@#+Q.y.y.$+%+S.a@b@1@H+I+I+q+c@# d@    ",
"      e@f@g@#+#+#+#+#+#+Q.y.y.$+R.%+S.T.&+^+H+I+I+I+h@i@j@      ",
"        I k@l@Q.y.y.y.y.$+$+R.%+S.T.&@^+^+H+I+I+I+m@n@o@K+      ",
"        o ]@p@q@$+$+R.R.%+%+S.T.T.&+^+^+q+I+I+I+r@s@o@8+        ",
"          A n t@u@%+S.S.T.T.T.&+^+^+H+I+I+I+v@w@x@y@8+          ",
"              z@A@B@C@D@&+^+^+^+*@q+I+I+E@F@G@m.H@K+            ",
"                =.$ A@I@J@K@L@M@N@O@P@Q@R@S@x@d@                ",
"                    Z #@T@n n U@D.[.T@S@6.^@V+                  ",
"                          -+(+8+8+(+K+V+                        "};
