/* XPM */
static const char * ok_icon_xpm[] = {
"32 32 485 2",
"  	c None",
". 	c #B8B8B8",
"+ 	c #C0C0C0",
"@ 	c #B6B6B6",
"# 	c #A9A8A8",
"$ 	c #C5C4C4",
"% 	c #B5B4B4",
"& 	c #9F9F9F",
"* 	c #979696",
"= 	c #969696",
"- 	c #A2A1A1",
"; 	c #B6B5B5",
"> 	c #B3B3B3",
", 	c #ABAAAA",
"' 	c #BABABA",
") 	c #798A75",
"! 	c #528B47",
"~ 	c #54964A",
"{ 	c #54984C",
"] 	c #529448",
"^ 	c #588C4D",
"/ 	c #979E95",
"( 	c #A4A3A3",
"_ 	c #C7C7C7",
": 	c #7B8C76",
"< 	c #5EAB53",
"[ 	c #9ED89C",
"} 	c #A0DDA0",
"| 	c #A0DCA0",
"1 	c #94D191",
"2 	c #4B983D",
"3 	c #A9ACA7",
"4 	c #969595",
"5 	c #BAB9B9",
"6 	c #559A48",
"7 	c #99DA97",
"8 	c #9ADB9A",
"9 	c #88D283",
"0 	c #7AA870",
"a 	c #AAAAAA",
"b 	c #C0BFBF",
"c 	c #A8A7A7",
"d 	c #58B64B",
"e 	c #93D893",
"f 	c #93D793",
"g 	c #93D892",
"h 	c #66AF59",
"i 	c #A5A4A4",
"j 	c #59BE4C",
"k 	c #8BD48B",
"l 	c #8BD38B",
"m 	c #8CD48B",
"n 	c #68B85C",
"o 	c #BCBBBB",
"p 	c #6D6D6D",
"q 	c #C9C9C9",
"r 	c #58BE4A",
"s 	c #84CF84",
"t 	c #83CC83",
"u 	c #82C482",
"v 	c #84C284",
"w 	c #82C982",
"x 	c #83CE83",
"y 	c #84D083",
"z 	c #69B95C",
"A 	c #BFBEBE",
"B 	c #706F6F",
"C 	c #CBCACA",
"D 	c #55BC48",
"E 	c #7CCA7B",
"F 	c #7CCA7C",
"G 	c #7BC77B",
"H 	c #87B786",
"I 	c #D6D8D4",
"J 	c #E3E2E2",
"K 	c #A9BEA7",
"L 	c #7AC17A",
"M 	c #7BCA7B",
"N 	c #7CCB7B",
"O 	c #68B85B",
"P 	c #C1C0C0",
"Q 	c #727171",
"R 	c #CCCCCC",
"S 	c #AEADAD",
"T 	c #53BA45",
"U 	c #73C673",
"V 	c #73C473",
"W 	c #76B675",
"X 	c #D0D5CF",
"Y 	c #F9F9FA",
"Z 	c #F4F3F4",
"` 	c #89B588",
" .	c #74C673",
"..	c #67B85A",
"+.	c #C4C3C3",
"@.	c #747474",
"#.	c #CECDCD",
"$.	c #B1B0B0",
"%.	c #50B842",
"&.	c #6BC16B",
"*.	c #6BC06B",
"=.	c #6AC06A",
"-.	c #68B668",
";.	c #B3C4B2",
">.	c #F5F5F5",
",.	c #F5F5F6",
"'.	c #F4F4F4",
").	c #8AB589",
"!.	c #6ABF6A",
"~.	c #6BC26A",
"{.	c #66B759",
"].	c #C6C5C5",
"^.	c #767676",
"/.	c #CFCECE",
"(.	c #B3B2B2",
"_.	c #4DB53F",
":.	c #62BB62",
"<.	c #61B561",
"[.	c #90B790",
"}.	c #EBEBEC",
"|.	c #F0F0F0",
"1.	c #D1D8D1",
"2.	c #64AE64",
"3.	c #62BA62",
"4.	c #63BC62",
"5.	c #65B658",
"6.	c #C8C7C7",
"7.	c #787777",
"8.	c #D0CFCF",
"9.	c #4AB33C",
"0.	c #5AB65A",
"a.	c #5AB55A",
"b.	c #5AB45A",
"c.	c #59B359",
"d.	c #6DAC6D",
"e.	c #DFE1E0",
"f.	c #E8E9EA",
"g.	c #E6E6E7",
"h.	c #76AE75",
"i.	c #59B259",
"j.	c #5AB75A",
"k.	c #64B557",
"l.	c #C9C8C8",
"m.	c #7A7979",
"n.	c #D1D0D0",
"o.	c #B7B6B6",
"p.	c #45B037",
"q.	c #52B052",
"r.	c #52AF52",
"s.	c #50A850",
"t.	c #78B477",
"u.	c #7FB77F",
"v.	c #51A551",
"w.	c #52AE52",
"x.	c #53A453",
"y.	c #C9D6CA",
"z.	c #E1E2E3",
"A.	c #E2E2E4",
"B.	c #A0C19F",
"C.	c #52B151",
"D.	c #62B455",
"E.	c #7B7A7A",
"F.	c #D1D1D1",
"G.	c #B8B7B7",
"H.	c #39A92B",
"I.	c #39A239",
"J.	c #46A846",
"K.	c #49A549",
"L.	c #9BC29C",
"M.	c #DCDCDE",
"N.	c #DBDBDD",
"O.	c #C6D5C7",
"P.	c #5AA35A",
"Q.	c #4AA74A",
"R.	c #4BAA4A",
"S.	c #48A248",
"T.	c #9FC2A0",
"U.	c #DADADC",
"V.	c #D9D9DB",
"W.	c #CAD7CB",
"X.	c #4B9E4B",
"Y.	c #4AA94A",
"Z.	c #4AAA4A",
"`.	c #43A743",
" +	c #35A133",
".+	c #5FB252",
"++	c #7C7B7B",
"@+	c #38A72A",
"#+	c #2B9A2B",
"$+	c #2B992B",
"%+	c #2A8E2A",
"&+	c #CBD3CD",
"*+	c #C7C8CB",
"=+	c #C8C8CC",
"-+	c #C9C9CC",
";+	c #CCD4CE",
">+	c #5CA25C",
",+	c #40A140",
"'+	c #42A542",
")+	c #42A642",
"!+	c #42A241",
"~+	c #69A869",
"{+	c #D3D5D6",
"]+	c #CACBCD",
"^+	c #CACACD",
"/+	c #C9CACD",
"(+	c #D4D7D6",
"_+	c #539C53",
":+	c #369C36",
"<+	c #329D32",
"[+	c #2C9A2C",
"}+	c #2B9B2A",
"|+	c #5FB152",
"1+	c #B8B6B6",
"2+	c #38A62A",
"3+	c #2B972B",
"4+	c #288C28",
"5+	c #B3C4B5",
"6+	c #B6B7BC",
"7+	c #C3CBC6",
"8+	c #4C984A",
"9+	c #2A9628",
"0+	c #2B9A28",
"a+	c #318E2E",
"b+	c #BECAC1",
"c+	c #BEBFC3",
"d+	c #7AAD7A",
"e+	c #299129",
"f+	c #2B992A",
"g+	c #5FAF51",
"h+	c #D0D0D0",
"i+	c #38A42A",
"j+	c #2B942B",
"k+	c #2A902A",
"l+	c #5C9C5C",
"m+	c #BDBFC2",
"n+	c #B1B2B6",
"o+	c #BEC5C1",
"p+	c #4E994B",
"q+	c #278C23",
"r+	c #95B895",
"s+	c #B2B4B8",
"t+	c #B1B2B7",
"u+	c #A6BFA7",
"v+	c #298B26",
"w+	c #2B9629",
"x+	c #2B962A",
"y+	c #2B952B",
"z+	c #5EAE51",
"A+	c #CAC9C9",
"B+	c #CFCFCF",
"C+	c #B4B3B3",
"D+	c #38A22A",
"E+	c #2B922B",
"F+	c #2B932A",
"G+	c #298C27",
"H+	c #7AA879",
"I+	c #BBBCC0",
"J+	c #B5B6BB",
"K+	c #BFC4C2",
"L+	c #86AA84",
"M+	c #BFC0C4",
"N+	c #BBC2BE",
"O+	c #3B9136",
"P+	c #2C9827",
"Q+	c #2C9928",
"R+	c #2C9729",
"S+	c #2B952A",
"T+	c #2B942A",
"U+	c #5EAC50",
"V+	c #797878",
"W+	c #CECECE",
"X+	c #B2B1B1",
"Y+	c #38A02A",
"Z+	c #2B912A",
"`+	c #2B922A",
" @	c #2C9429",
".@	c #2C9628",
"+@	c #298E24",
"@@	c #7AA778",
"#@	c #C4C5C8",
"$@	c #C3C4C8",
"%@	c #C4C5C9",
"&@	c #63A05E",
"*@	c #2C9923",
"=@	c #2D9D25",
"-@	c #2D9B26",
";@	c #2C9927",
">@	c #2C9728",
",@	c #5DAB50",
"'@	c #C7C6C6",
")@	c #777777",
"!@	c #CDCCCC",
"~@	c #B0AEAE",
"{@	c #379F29",
"]@	c #2B8F2A",
"^@	c #2C9328",
"/@	c #2C9627",
"(@	c #2D9926",
"_@	c #2D9B25",
":@	c #2A9221",
"<@	c #72A26E",
"[@	c #CFCFD1",
"}@	c #D4D4D7",
"|@	c #D3D4D6",
"1@	c #91B08F",
"2@	c #2A971F",
"3@	c #2EA222",
"4@	c #2EA023",
"5@	c #2D9E24",
"6@	c #2D9826",
"7@	c #2C9229",
"8@	c #2B9129",
"9@	c #5CA94F",
"0@	c #767575",
"a@	c #CCCBCB",
"b@	c #ADACAC",
"c@	c #379E28",
"d@	c #2B9028",
"e@	c #2B9526",
"f@	c #2C9825",
"g@	c #2D9C24",
"h@	c #2D9F22",
"i@	c #2DA121",
"j@	c #2B991E",
"k@	c #649C5D",
"l@	c #D3D4D5",
"m@	c #E0E0E2",
"n@	c #BBC3BB",
"o@	c #349626",
"p@	c #2EA61E",
"q@	c #2EA61F",
"r@	c #2EA420",
"s@	c #2B9427",
"t@	c #2B9128",
"u@	c #5BA84E",
"v@	c #C3C2C2",
"w@	c #737373",
"x@	c #CACACA",
"y@	c #AAA8A8",
"z@	c #369C27",
"A@	c #2B9027",
"B@	c #2C9625",
"C@	c #2D9B23",
"D@	c #2D9E22",
"E@	c #2EA220",
"F@	c #2EA51F",
"G@	c #2EA71E",
"H@	c #2CA01C",
"I@	c #57964D",
"J@	c #D4D5D5",
"K@	c #DCDCDD",
"L@	c #4E9642",
"M@	c #2EA81B",
"N@	c #2FAC1D",
"O@	c #2FAA1D",
"P@	c #2EA41F",
"Q@	c #2EA121",
"R@	c #2D9A23",
"S@	c #2C9525",
"T@	c #2B9127",
"U@	c #5AA74D",
"V@	c #717070",
"W@	c #C8C8C8",
"X@	c #A6A5A5",
"Y@	c #369B27",
"Z@	c #2B9126",
"`@	c #2D9823",
" #	c #2D9D21",
".#	c #2EA120",
"+#	c #2FA81D",
"@#	c #2FAB1C",
"##	c #2FAD1C",
"$#	c #2DA619",
"%#	c #4D9441",
"&#	c #D2D5D2",
"*#	c #F1F1F1",
"=#	c #79A072",
"-#	c #2CA518",
";#	c #30B11A",
">#	c #30AF1B",
",#	c #2FAB1D",
"'#	c #2FA81E",
")#	c #2D9D22",
"!#	c #2C9724",
"~#	c #2C9126",
"{#	c #5AA54C",
"]#	c #BEBDBD",
"^#	c #6F6E6E",
"/#	c #369B26",
"(#	c #2C9225",
"_#	c #2D9A22",
":#	c #2EA020",
"<#	c #2EA41E",
"[#	c #2FAC1C",
"}#	c #30B319",
"|#	c #2EAD17",
"1#	c #439633",
"2#	c #95B090",
"3#	c #78A270",
"4#	c #30A31A",
"5#	c #31B418",
"6#	c #31B518",
"7#	c #30AE1B",
"8#	c #2E9F20",
"9#	c #2D9922",
"0#	c #59A54B",
"a#	c #BBBBBB",
"b#	c #6C6C6C",
"c#	c #BDBDBD",
"d#	c #A9A9A9",
"e#	c #3C9F29",
"f#	c #2C9324",
"g#	c #2E9C21",
"h#	c #2EA31E",
"i#	c #2FA71D",
"j#	c #30AF1A",
"k#	c #30B219",
"l#	c #31B717",
"m#	c #31B817",
"n#	c #30B616",
"o#	c #2FB015",
"p#	c #30B315",
"q#	c #31B816",
"r#	c #31B916",
"s#	c #30AE1A",
"t#	c #2EA21F",
"u#	c #2D9A21",
"v#	c #2D9424",
"w#	c #63AC53",
"x#	c #B9B9B9",
"y#	c #5D5D5D",
"z#	c #5EA74C",
"A#	c #2E9822",
"B#	c #2EA21E",
"C#	c #2FA71C",
"D#	c #30AB1B",
"E#	c #31B219",
"F#	c #32B916",
"G#	c #32BA16",
"H#	c #31B617",
"I#	c #30B119",
"J#	c #2EA11F",
"K#	c #2D9822",
"L#	c #2F9F1F",
"M#	c #96BF8B",
"N#	c #9BA497",
"O#	c #40AA28",
"P#	c #2F9D1F",
"Q#	c #2E9B20",
"R#	c #2E9E1F",
"S#	c #2FA21E",
"T#	c #2FA51D",
"U#	c #30AA1B",
"V#	c #30AC1B",
"W#	c #30AD1A",
"X#	c #30AF19",
"Y#	c #30A91B",
"Z#	c #2FA41D",
"`#	c #2FA11E",
" $	c #30A21E",
".$	c #57AD42",
"+$	c #C5C5C4",
"@$	c #6E6E6E",
"#$	c #A3A2A2",
"$$	c #A8ACA6",
"%$	c #80B572",
"&$	c #5CA94B",
"*$	c #59A748",
"=$	c #59A848",
"-$	c #59A847",
";$	c #59A947",
">$	c #59AA47",
",$	c #59AB47",
"'$	c #62AC51",
")$	c #C3C3C3",
"!$	c #878686",
"~$	c #222121",
"{$	c #919090",
"]$	c #B1B1B1",
"^$	c #9E9D9D",
"/$	c #6B6A6A",
"($	c #212020",
"_$	c #626161",
":$	c #545454",
"          . + + + + + + + + + + + + + + + + + + + @             ",
"    # $ % & * = = = = = = = = = = = = = = = = = * - ; >         ",
"  , ' ) ! ~ { { { { { { { { { { { { { { { { { { { ] ^ / (       ",
"  _ : < [ } } } } } } } } } } } } } } } } } } } } | 1 2 3 4     ",
"  5 6 7 8 8 8 8 8 8 8 8 8 8 8 8 8 8 8 8 8 8 8 8 8 8 8 9 0 a     ",
"b c d e f f f f f f f f f f f f f f f f f f f f f f f g h 5     ",
"_ i j k k k k k k k k k k k k k k k k k k k k l k k k m n o p   ",
"q c r s s s s s s s s s s s s s s s s s s t u v w x s y z A B   ",
"C , D E F F F F F F F F F F F F F F F F G H I J K L M N O P Q   ",
"R S T U U U U U U U U U U U U U U U U V W X Y Y Z ` V  ...+.@.  ",
"#.$.%.&.*.*.*.*.*.*.*.*.*.*.*.*.*.*.=.-.;.>.,.,.'.).!.~.{.].^.  ",
"/.(._.:.:.:.:.:.:.:.:.:.:.:.:.:.:.:.<.[.}.|.|.|.1.2.3.4.5.6.7.  ",
"8.% 9.0.0.0.a.b.b.a.0.0.0.0.0.0.0.c.d.e.f.f.f.g.h.i.0.j.k.l.m.  ",
"n.o.p.q.q.r.s.t.u.v.w.q.q.q.q.q.r.x.y.z.z.z.A.B.s.q.q.C.D.C E.  ",
"F.G.H.I.J.K.L.M.N.O.P.Q.R.R.R.R.S.T.U.V.V.V.W.X.Y.Z.`. +.+C ++  ",
"F.G.@+#+$+%+&+*+=+-+;+>+,+'+)+!+~+{+]+^+/+(+_+:+<+[+#+}+|+C ++  ",
"n.1+2+3+3+4+5+6+6+6+6+7+8+9+0+a+b+6+6+6+c+d+e+3+3+3+3+f+g+C ++  ",
"h+; i+j+j+k+l+m+n+n+n+n+o+p+q+r+s+n+n+t+u+v+w+x+y+j+j+x+z+A+E.  ",
"B+C+D+E+E+F+G+H+I+J+J+J+J+K+L+M+J+J+J+N+O+P+Q+R+S+F+E+T+U+l.V+  ",
"W+X+Y+Z+`+ @.@+@@@#@$@$@$@$@$@$@$@$@%@&@*@=@-@;@>@ @`+`+,@'@)@  ",
"!@~@{@]@^@/@(@_@:@<@[@}@}@}@}@}@}@|@1@2@3@4@5@_@6@/@7@8@9@$ 0@  ",
"a@b@c@d@e@f@g@h@i@j@k@l@m@m@m@m@m@n@o@p@q@r@i@h@g@f@s@t@u@v@w@  ",
"x@y@z@A@B@C@D@E@F@G@H@I@J@}.}.}.K@L@M@N@O@G@P@Q@D@R@S@T@U@b V@  ",
"W@X@Y@Z@`@ #.#F@+#@###$#%#&#'.*#=#-#;#>###,#'#P@.#)#!#~#{#]#^#  ",
"'@( /#(#_#:#<#+#[#>#;#}#|#1#2#3#4#5#6#}#;#7#@#+#<#8#9#(#0#a#b#  ",
"c#d#e#f#g#h#i#@#j#k#6#l#m#n#o#p#q#r#m#l#5#k#s#@#i#t#u#v#w#x#y#  ",
"  ' z#A#u#B#C#D#j#E#5#l#q#F#G#G#G#F#m#H#5#I#s#D#i#J#K#L#M#X@    ",
"  ; N#O#P#Q#R#S#T#C#U#V#W#s#X#X#X#s#W#D#Y#C#Z#`#R#Q# $.$+$@$    ",
"    #$$$%$&$*$=$-$;$>$>$,$,$,$,$,$,$,$>$>$;$-$=$*$'$M#)$!$~$    ",
"      {$- ]$$.$.$.$.$.$.$.$.$.$.$.$.$.$.$.$.$.$.$.X+^$/$($      ",
"            _$_$_$_$_$_$_$_$_$_$_$_$_$_$_$_$_$_$_$:$            ",
"                                                                "};
